<?xml version="1.0" encoding="utf-8"?><svg xmlns="http://www.w3.org/2000/svg" xmlns:xlink="http://www.w3.org/1999/xlink"><symbol viewBox="0 0 44 44" id="arrow-left" xmlns="http://www.w3.org/2000/svg"><g clip-path="url(#aclip0_46_411)"><path d="M41.25 0H2.75C1.23337 0 0 1.23337 0 2.75V41.25C0 42.7666 1.23337 44 2.75 44H41.25C42.7666 44 44 42.7666 44 41.25V2.75C44 1.23337 42.7666 0 41.25 0ZM41.25 41.25L2.75 41.2514V2.75H41.25V41.25Z"/><path d="M27.097 14.7221L25.1527 12.7778L16.9027 21.0278C16.3651 21.5654 16.3651 22.4345 16.9027 22.9721L25.1527 31.2221L27.097 29.2778L19.8191 21.9999L27.097 14.7221Z"/></g><defs><clipPath id="aclip0_46_411"><rect width="44" height="44"/></clipPath></defs></symbol><symbol viewBox="0 0 44 44" id="arrow-right" xmlns="http://www.w3.org/2000/svg"><g clip-path="url(#bclip0_46_418)"><path d="M2.75 0H41.25C42.7666 0 44 1.23337 44 2.75V41.25C44 42.7666 42.7666 44 41.25 44H2.75C1.23338 44 0 42.7666 0 41.25V2.75C0 1.23337 1.23338 0 2.75 0ZM2.75 41.25L41.25 41.2514V2.75H2.75V41.25Z"/><path d="M16.903 14.7221L18.8473 12.7778L27.0973 21.0278C27.6349 21.5654 27.6349 22.4345 27.0973 22.9721L18.8473 31.2221L16.903 29.2778L24.1809 21.9999L16.903 14.7221Z"/></g><defs><clipPath id="bclip0_46_418"><rect width="44" height="44" transform="matrix(-1 0 0 1 44 0)"/></clipPath></defs></symbol><symbol viewBox="0 0 18 24" id="cart" xmlns="http://www.w3.org/2000/svg"><path d="M15.2523 6.64357H14.3686V5.3685C14.3685 2.40813 11.9602 0 8.99991 0C6.03966 0 3.63119 2.40847 3.63119 5.3685V6.64357H2.74748C1.31064 6.64357 0.141602 7.81261 0.141602 9.24944V21.3941C0.141602 22.8313 1.31064 24 2.74748 24H15.2522C16.6891 24 17.8581 22.8312 17.8581 21.3941V9.24944C17.8581 7.81261 16.6891 6.64357 15.2523 6.64357ZM5.33124 5.3685C5.33124 3.34569 6.97688 1.70005 8.99991 1.70005C11.0227 1.70005 12.6684 3.34569 12.6684 5.3685V6.64357H5.33124V5.3685ZM16.1582 21.3941C16.1582 21.894 15.7516 22.2999 15.2523 22.2999H2.74737C2.24787 22.2999 1.84154 21.8936 1.84154 21.3941V9.24944C1.84154 8.74994 2.24787 8.34361 2.74737 8.34361H3.63108V9.53567C3.35792 9.77363 3.18174 10.1202 3.18174 10.5112C3.18174 11.2289 3.76346 11.8109 4.48116 11.8109C5.19862 11.8109 5.78058 11.2289 5.78058 10.5112C5.78058 10.1205 5.60428 9.77397 5.33124 9.53567V8.34361H12.6684V9.53567C12.3952 9.77363 12.219 10.1202 12.219 10.5112C12.219 11.2289 12.8007 11.8109 13.5184 11.8109C14.2361 11.8109 14.8179 11.2289 14.8179 10.5112C14.8179 10.1205 14.6416 9.77363 14.3685 9.53567V8.34361H15.2522C15.7517 8.34361 16.1581 8.74994 16.1581 9.24944V21.3941H16.1582Z"/></symbol><symbol viewBox="0 0 22 22" id="search" xmlns="http://www.w3.org/2000/svg"><path d="M21.7312 20.4352L15.475 14.179C16.6868 12.6821 17.4165 10.78 17.4165 8.70842C17.4165 3.90696 13.5097 0.000152588 8.70822 0.000152588C3.90677 0.000152588 0 3.90692 0 8.70837C0 13.5098 3.90681 17.4166 8.70826 17.4166C10.7799 17.4166 12.682 16.687 14.1789 15.4752L20.4351 21.7313C20.6138 21.9101 20.8484 21.9999 21.0831 21.9999C21.3178 21.9999 21.5525 21.9101 21.7312 21.7313C22.0896 21.3729 22.0896 20.7936 21.7312 20.4352ZM8.70826 15.5833C4.91695 15.5833 1.83333 12.4997 1.83333 8.70837C1.83333 4.91706 4.91695 1.83344 8.70826 1.83344C12.4996 1.83344 15.5832 4.91706 15.5832 8.70837C15.5832 12.4997 12.4995 15.5833 8.70826 15.5833Z"/></symbol><symbol viewBox="0 0 16 16" id="star-off" xmlns="http://www.w3.org/2000/svg"><path d="M15.5754 5.72278L10.6568 4.97145L8.4521 0.275451C8.28743 -0.0752155 7.7121 -0.0752155 7.54743 0.275451L5.34343 4.97145L0.424766 5.72278C0.0207661 5.78478 -0.140567 6.27612 0.142766 6.56612L3.7161 10.2288L2.87143 15.4068C2.8041 15.8181 3.24343 16.1268 3.60677 15.9248L8.0001 13.4968L12.3934 15.9255C12.7534 16.1255 13.1968 15.8228 13.1288 15.4075L12.2841 10.2295L15.8574 6.56678C16.1408 6.27612 15.9788 5.78478 15.5754 5.72278Z"/></symbol><symbol viewBox="0 0 16 16" id="star-on" xmlns="http://www.w3.org/2000/svg"><path d="M15.5754 5.72278L10.6568 4.97145L8.4521 0.275451C8.28743 -0.0752155 7.7121 -0.0752155 7.54743 0.275451L5.34343 4.97145L0.424766 5.72278C0.0207661 5.78478 -0.140567 6.27612 0.142766 6.56612L3.7161 10.2288L2.87143 15.4068C2.8041 15.8181 3.24343 16.1268 3.60677 15.9248L8.0001 13.4968L12.3934 15.9255C12.7534 16.1255 13.1968 15.8228 13.1288 15.4075L12.2841 10.2295L15.8574 6.56678C16.1408 6.27612 15.9788 5.78478 15.5754 5.72278Z"/></symbol></svg>