<?xml version="1.0" encoding="utf-8"?><svg viewBox="0 0 44 44" xmlns="http://www.w3.org/2000/svg" xmlns:xlink="http://www.w3.org/1999/xlink"><style>:root>svg{display:none}:root>svg:target{display:block}</style><svg fill="none" viewBox="0 0 44 44" id="arrow-left" xmlns="http://www.w3.org/2000/svg">
    <g clip-path="url(#aa)" fill="#828181">
        <path d="M41.25 0H2.75A2.753 2.753 0 0 0 0 2.75v38.5A2.753 2.753 0 0 0 2.75 44h38.5A2.753 2.753 0 0 0 44 41.25V2.75A2.753 2.753 0 0 0 41.25 0Zm0 41.25-38.5.001V2.75h38.5v38.5Z"/>
        <path d="m27.097 14.722-1.944-1.944-8.25 8.25a1.374 1.374 0 0 0 0 1.944l8.25 8.25 1.944-1.944L19.819 22l7.278-7.278Z"/>
    </g>
    <defs>
        <clipPath id="aa">
            <path fill="#fff" d="M0 0h44v44H0z"/>
        </clipPath>
    </defs>
</svg><svg fill="none" viewBox="0 0 44 44" id="arrow-right" xmlns="http://www.w3.org/2000/svg">
    <g clip-path="url(#ba)" fill="#F6623E">
        <path d="M2.75 0h38.5A2.753 2.753 0 0 1 44 2.75v38.5A2.753 2.753 0 0 1 41.25 44H2.75A2.753 2.753 0 0 1 0 41.25V2.75A2.753 2.753 0 0 1 2.75 0Zm0 41.25 38.5.001V2.75H2.75v38.5Z"/>
        <path d="m16.903 14.722 1.944-1.944 8.25 8.25a1.374 1.374 0 0 1 0 1.944l-8.25 8.25-1.944-1.944L24.181 22l-7.278-7.278Z"/>
    </g>
    <defs>
        <clipPath id="ba">
            <path fill="#fff" transform="matrix(-1 0 0 1 44 0)" d="M0 0h44v44H0z"/>
        </clipPath>
    </defs>
</svg><svg fill="none" viewBox="0 0 18 24" id="cart" xmlns="http://www.w3.org/2000/svg">
    <path d="M15.252 6.644h-.883V5.368A5.375 5.375 0 0 0 8.999 0a5.375 5.375 0 0 0-5.368 5.369v1.275h-.884A2.609 2.609 0 0 0 .142 9.249v12.145A2.609 2.609 0 0 0 2.747 24h12.505a2.609 2.609 0 0 0 2.606-2.606V9.25a2.609 2.609 0 0 0-2.606-2.605Zm-9.92-1.276A3.673 3.673 0 0 1 9 1.7a3.673 3.673 0 0 1 3.668 3.668v1.276H5.331V5.368Zm10.826 16.026c0 .5-.406.906-.906.906H2.747a.907.907 0 0 1-.905-.906V9.25c0-.5.406-.905.905-.905h.884v1.192a1.29 1.29 0 0 0-.45.975 1.3 1.3 0 1 0 2.6 0c0-.39-.177-.737-.45-.975V8.344h7.337v1.192a1.29 1.29 0 0 0-.449.975 1.3 1.3 0 1 0 2.599 0c0-.39-.176-.737-.45-.975V8.344h.884c.5 0 .906.406.906.905v12.145Z" fill="#454545"/>
</svg><svg fill="none" viewBox="0 0 22 22" id="search" xmlns="http://www.w3.org/2000/svg">
    <path d="m21.731 20.435-6.256-6.256a8.666 8.666 0 0 0 1.941-5.47C17.416 3.906 13.51 0 8.708 0 3.907 0 0 3.907 0 8.708c0 4.802 3.907 8.709 8.708 8.709 2.072 0 3.974-.73 5.47-1.942l6.257 6.256a.914.914 0 0 0 1.296 0 .916.916 0 0 0 0-1.296ZM8.708 15.583a6.882 6.882 0 0 1-6.875-6.875 6.882 6.882 0 0 1 6.875-6.875 6.882 6.882 0 0 1 6.875 6.875 6.882 6.882 0 0 1-6.875 6.875Z" fill="#454545"/>
</svg><svg fill="none" viewBox="0 0 16 16" id="star-off" xmlns="http://www.w3.org/2000/svg">
    <path d="m15.575 5.723-4.918-.752L8.452.275c-.165-.35-.74-.35-.905 0L5.343 4.971l-4.918.752a.5.5 0 0 0-.282.843l3.573 3.663-.845 5.178a.5.5 0 0 0 .736.518L8 13.497l4.393 2.428a.5.5 0 0 0 .736-.518l-.845-5.178 3.573-3.662a.5.5 0 0 0-.282-.844Z" fill="#D8D8D8"/>
</svg><svg fill="none" viewBox="0 0 16 16" id="star-on" xmlns="http://www.w3.org/2000/svg">
    <path d="m15.575 5.723-4.918-.752L8.452.275c-.165-.35-.74-.35-.905 0L5.343 4.971l-4.918.752a.5.5 0 0 0-.282.843l3.573 3.663-.845 5.178a.5.5 0 0 0 .736.518L8 13.497l4.393 2.428a.5.5 0 0 0 .736-.518l-.845-5.178 3.573-3.662a.5.5 0 0 0-.282-.844Z" fill="#FFC107"/>
</svg></svg>